<svg width="120" height="25" viewBox="0 0 120 25" fill="none" xmlns="http://www.w3.org/2000/svg">
<path d="M5.825 22.1428L7.45 15.1178L2 10.3928L9.2 9.76782L12 3.14282L14.8 9.76782L22 10.3928L16.55 15.1178L18.175 22.1428L12 18.4178L5.825 22.1428Z" fill="#FFC700"/>
<path d="M29.825 22.1428L31.45 15.1178L26 10.3928L33.2 9.76782L36 3.14282L38.8 9.76782L46 10.3928L40.55 15.1178L42.175 22.1428L36 18.4178L29.825 22.1428Z" fill="#FFC700"/>
<path d="M53.825 22.1428L55.45 15.1178L50 10.3928L57.2 9.76782L60 3.14282L62.8 9.76782L70 10.3928L64.55 15.1178L66.175 22.1428L60 18.4178L53.825 22.1428Z" fill="#FFC700"/>
<path d="M77.825 22.1428L79.45 15.1178L74 10.3928L81.2 9.76782L84 3.14282L86.8 9.76782L94 10.3928L88.55 15.1178L90.175 22.1428L84 18.4178L77.825 22.1428Z" fill="#FFC700"/>
<path d="M101.825 22.1428L103.45 15.1178L98 10.3928L105.2 9.76782L108 3.14282L110.8 9.76782L118 10.3928L112.55 15.1178L114.175 22.1428L108 18.4178L101.825 22.1428Z" fill="#FFC700"/>
</svg>
