<?xml version="1.0" encoding="utf-8"?>
<!-- Generator: Adobe Illustrator 27.4.1, SVG Export Plug-In . SVG Version: 6.00 Build 0)  -->
<svg version="1.1" id="Layer_1" xmlns="http://www.w3.org/2000/svg" xmlns:xlink="http://www.w3.org/1999/xlink" x="0px" y="0px"
	 viewBox="0 0 231.8 81" style="enable-background:new 0 0 231.8 81;" xml:space="preserve">
<style type="text/css">
	.st0{fill:#FFFFFF;}
	.st1{fill:url(#SVGID_1_);}
	.st2{fill:#B43CEC;}
</style>
<g id="Layer_2_00000161632666698454408630000005475357773100388507_">
	<path class="st0" d="M49.4,78.3L39.9,59l-9.5,19.3H3.6l22.2-38.2L4.1,2.5h26.6l9,18.7l9.2-18.7h169.4c5.7,0,10.3,4.5,10.3,10.2
		v55.4c0,5.7-4.6,10.3-10.3,10.3l0,0L49.4,78.3z"/>
	<g>
		<path class="st0" d="M218.2,79.4L218.2,79.4L218.2,79.4z"/>
	</g>
</g>
<g id="Layer_1_00000143613197521217586940000016334779026350459578_">
	
		<linearGradient id="SVGID_1_" gradientUnits="userSpaceOnUse" x1="55.3068" y1="1437.7505" x2="226.4542" y2="1429.9912" gradientTransform="matrix(1 0 0 1 0 -1393.189)">
		<stop  offset="0" style="stop-color:#540087"/>
		<stop  offset="1" style="stop-color:#7900C2"/>
	</linearGradient>
	<path class="st1" d="M218.2,4.4H75.8L55.1,40l22.3,36.4h140.8c4.6,0,8.3-3.7,8.3-8.3V12.7C226.5,8.1,222.8,4.4,218.2,4.4z"/>
	<path class="st0" d="M79.1,28.9H87c1.8,0,3.1,0.1,4.1,0.4c1.3,0.4,2.3,1,3.2,2c0.9,0.9,1.6,2.1,2.1,3.5s0.7,3.1,0.7,5.1
		c0,1.8-0.2,3.3-0.7,4.6c-0.5,1.6-1.3,2.8-2.3,3.8c-0.8,0.7-1.8,1.3-3,1.7c-1,0.3-2.2,0.5-3.8,0.5h-8.2
		C79.1,50.5,79.1,28.9,79.1,28.9z M83.5,32.6v14.2h3.2c1.2,0,2.1-0.1,2.6-0.2c0.7-0.2,1.3-0.5,1.7-0.9c0.5-0.4,0.8-1.1,1.1-2.1
		c0.3-1,0.4-2.3,0.4-3.9c0-1.7-0.1-2.9-0.4-3.8c-0.3-0.9-0.7-1.6-1.2-2.1s-1.2-0.8-2-1c-0.6-0.1-1.8-0.2-3.6-0.2H83.5z M122.6,50.4
		h-4.7l-1.9-4.9h-8.6l-1.8,4.9H101l8.4-21.5h4.6L122.6,50.4z M114.6,41.9l-3-8l-2.9,8H114.6z M129.9,50.4V32.6h-6.4V29h17.1v3.6
		h-6.4v17.8C134.2,50.4,129.9,50.4,129.9,50.4z M145.7,50.4V28.9h4.3v21.5H145.7z M156.6,50.4V28.9h4.2l8.8,14.3V28.9h4v21.5h-4.4
		l-8.7-14v14H156.6z M190.7,42.5v-3.6h9.3v8.6c-0.9,0.9-2.2,1.7-4,2.3c-1.7,0.7-3.5,1-5.2,1c-2.2,0-4.2-0.5-5.9-1.4s-2.9-2.3-3.8-4
		c-0.8-1.8-1.3-3.7-1.3-5.7c0-2.2,0.5-4.2,1.4-6c0.9-1.7,2.3-3.1,4.1-4c1.4-0.7,3.1-1.1,5.1-1.1c2.7,0,4.7,0.6,6.2,1.7
		s2.5,2.7,2.9,4.6l-4.3,0.8c-0.3-1.1-0.9-1.9-1.7-2.5s-1.9-0.9-3.1-0.9c-1.9,0-3.4,0.6-4.5,1.8s-1.7,3-1.7,5.3
		c0,2.5,0.6,4.5,1.7,5.7c1.1,1.3,2.6,1.9,4.5,1.9c0.9,0,1.8-0.2,2.7-0.5c0.9-0.4,1.7-0.8,2.4-1.3v-2.7
		C195.5,42.5,190.7,42.5,190.7,42.5z"/>
	<g>
		<polygon class="st2" points="73.7,76.3 51.5,40.1 72.1,4.5 50.1,4.5 39.7,25.8 29.4,4.5 7.6,4.5 28.2,40.1 7,76.3 29,76.3 
			39.9,54.5 50.7,76.3 		"/>
	</g>
</g>
</svg>
